<?xml version="1.0" encoding="iso-8859-1"?>
<!-- Generator: Adobe Illustrator 19.0.0, SVG Export Plug-In . SVG Version: 6.00 Build 0)  -->
<svg xmlns="http://www.w3.org/2000/svg" xmlns:xlink="http://www.w3.org/1999/xlink" version="1.1" id="Layer_1" x="0px" y="0px" viewBox="0 0 299.49 299.49" style="enable-background:new 0 0 299.49 299.49;" xml:space="preserve" width="512px" height="512px">
<g>
	<g>
		<g>
			<circle cx="104.352" cy="247.162" r="5.025" fill="#00fcfc"/>
			<path d="M226.963,108.473c0.067-0.067,0.134-0.134,0.201-0.201c2.747-3.886,26.532-38.257,22.847-59.831     c-2.881-15.946-15.946-31.624-31.892-38.056c-0.067,0-0.134-0.067-0.201-0.067C199.358,3.685,175.037,0,149.376,0     c-25.661,0-49.781,3.685-67.938,10.318c-0.067,0-0.134,0.067-0.134,0.067c-16.482,6.7-29.882,22.311-32.696,38.056     c0,0.067,0,0.201-0.067,0.268c-2.68,21.373,21.038,55.677,23.785,59.563c-0.737,0.67-1.474,1.407-2.211,2.144     c-21.038,20.971-32.629,48.91-32.629,78.658c0,29.681,11.591,57.486,32.629,78.256c21.038,20.77,49.111,32.16,79.194,32.16     s58.29-11.457,79.596-32.16c21.306-20.837,33.098-48.642,33.098-78.256C261.937,157.316,248.469,128.774,226.963,108.473z      M58.524,50.049c2.278-12.261,13.4-24.991,26.532-30.351c35.309-12.931,93.331-12.931,129.444,0     c12.663,5.159,23.45,17.956,25.661,30.418c2.479,14.472-13.802,41.741-20.77,51.791c-4.489-3.484-9.179-6.7-14.204-9.514     c5.494-7.102,14.003-20.1,11.792-29.882c-2.01-10.586-11.256-19.832-22.981-23.048c-24.79-7.839-63.583-7.839-88.44,0     c-11.792,3.216-21.038,12.529-23.048,23.182c0,0.067,0,0.067,0,0.134c-1.474,9.447,6.499,22.177,11.792,29.279     c-4.958,2.814-9.715,6.03-14.271,9.581C72.863,91.388,56.782,64.588,58.524,50.049z M195.942,87.703     c-14.204-6.432-30.016-9.983-46.699-9.983c-16.08,0-31.691,3.35-45.895,9.715c-5.628-7.37-11.725-17.889-10.988-23.115     c1.273-6.834,7.772-13.065,15.812-15.209c0.067,0,0.134-0.067,0.201-0.067c22.78-7.236,59.764-7.236,82.544,0     c0.067,0,0.134,0.067,0.201,0.067c8.107,2.144,14.606,8.442,15.879,15.276c0,0.067,0,0.134,0.067,0.201     C208.269,69.68,201.838,80.333,195.942,87.703z M149.31,289.373c-56.079,0-101.773-45.024-101.773-100.366     c0-55.811,45.627-101.237,101.773-101.237c56.548,0,102.577,45.426,102.577,101.237     C251.886,244.349,205.857,289.373,149.31,289.373z" fill="#00fcfc"/>
			<path d="M81.438,174.736c0-2.747-2.278-5.025-5.025-5.025s-5.025,2.278-5.025,5.025c0,20.837,6.097,41.138,17.755,58.826     c1.005,1.474,2.613,2.278,4.221,2.278c0.938,0,1.876-0.268,2.814-0.871c2.278-1.541,2.948-4.623,1.407-6.968     C87,211.988,81.438,193.563,81.438,174.736z" fill="#00fcfc"/>
		</g>
	</g>
</g>
<g>
</g>
<g>
</g>
<g>
</g>
<g>
</g>
<g>
</g>
<g>
</g>
<g>
</g>
<g>
</g>
<g>
</g>
<g>
</g>
<g>
</g>
<g>
</g>
<g>
</g>
<g>
</g>
<g>
</g>
</svg>
